# xmcd
#
# Track frame offsets: 
#        150
#        13578
#        37428
#        55538
#        70515
#        85360
#        97058
#        113695
#        133015
#        154483
#        168933
#        184353
#        201825
#        215495
#        242743
#        256855
#        270068
#        285938
#
# Disc length: 4001 seconds
#
# Revision: 1
# Processed by: cddbd v1.5.2PL0 Copyright (c) Steve Scherf et al.
# Submitted via: ExactAudioCopyFreeDBPlugin 1.0
#
DISCID=fb0f9f12
DTITLE=Various Artist - Going West - The Best of Country and Rock
DYEAR=1993
DGENRE=Country
TTITLE0=Desert rose band - Love reunited
TTITLE1=Joe Walsh - Rocky Mountain way
TTITLE2=Hank Williams jr. - Family tradition
TTITLE3=Delbert McClinton - The real thing
TTITLE4=Bellamy brothers - Let your love flow
TTITLE5=Dave Dudley - Six days on the road
TTITLE6=Nancy and Lee - Summer wine
TTITLE7=Boston - Amanda
TTITLE8=Lynryd Skynyrd - Sweet home Alabama
TTITLE9=Merle Hagard - Lucky old Colorado
TTITLE10=The long coats - Achy breaky heart
TTITLE11=Little river band - Lonesome loser (live)
TTITLE12=Steve Earle - The devils right hand
TTITLE13=Marshall Tucker band - Can't you see
TTITLE14=Killer Billy's - Duelling banjos
TTITLE15=The turtles - Happy together
TTITLE16=Kansas - Stand beside me
TTITLE17=Heinz Kiesling - Come on fly me
EXTD=
EXTT0=
EXTT1=
EXTT2=
EXTT3=
EXTT4=
EXTT5=
EXTT6=
EXTT7=
EXTT8=
EXTT9=
EXTT10=
EXTT11=
EXTT12=
EXTT13=
EXTT14=
EXTT15=
EXTT16=
EXTT17=
PLAYORDER=
